<svg xmlns="http://www.w3.org/2000/svg" xmlns:xlink="http://www.w3.org/1999/xlink" width="500" zoomAndPan="magnify" viewBox="0 0 375 374.999991" height="500" preserveAspectRatio="xMidYMid meet" version="1.0"><defs><clipPath id="eee272d7c8"><path d="M 34 69 L 341 69 L 341 375 L 34 375 Z M 34 69 " clip-rule="nonzero"/></clipPath><clipPath id="f8eede48eb"><path d="M 187.496094 69.988281 L 340.234375 222.722656 L 187.496094 375.457031 L 34.761719 222.722656 Z M 187.496094 69.988281 " clip-rule="nonzero"/></clipPath><clipPath id="82bcc8e89d"><path d="M 187.496094 69.988281 L 340.234375 222.722656 L 187.496094 375.457031 L 34.761719 222.722656 Z M 187.496094 69.988281 " clip-rule="nonzero"/></clipPath><clipPath id="546d67c33d"><path d="M 187.496094 69.988281 L 340.234375 222.722656 L 187.496094 375.457031 L 34.761719 222.722656 Z M 187.496094 69.988281 " clip-rule="nonzero"/></clipPath><clipPath id="a2351dbdad"><path d="M 77 155 L 298 155 L 298 375 L 77 375 Z M 77 155 " clip-rule="nonzero"/></clipPath><clipPath id="5afa173bfd"><path d="M 187.5 155.210938 L 297.277344 264.988281 L 187.5 374.765625 L 77.722656 264.988281 Z M 187.5 155.210938 " clip-rule="nonzero"/></clipPath><clipPath id="3b70286c5f"><path d="M 187.5 155.210938 L 299.375 267.085938 L 187.5 378.964844 L 75.621094 267.085938 Z M 187.5 155.210938 " clip-rule="nonzero"/></clipPath><clipPath id="b3074c2df5"><path d="M 187.5 155.210938 L 297.277344 264.988281 L 187.5 374.765625 L 77.722656 264.988281 Z M 187.5 155.210938 " clip-rule="nonzero"/></clipPath><clipPath id="949650eb1a"><path d="M 34 0 L 341 0 L 341 306 L 34 306 Z M 34 0 " clip-rule="nonzero"/></clipPath><clipPath id="820b03f131"><path d="M 187.496094 0 L 340.234375 152.734375 L 187.496094 305.472656 L 34.761719 152.734375 Z M 187.496094 0 " clip-rule="nonzero"/></clipPath><clipPath id="0032911c01"><path d="M 187.496094 0 L 340.234375 152.734375 L 187.496094 305.472656 L 34.761719 152.734375 Z M 187.496094 0 " clip-rule="nonzero"/></clipPath><clipPath id="c4bdd6cb0f"><path d="M 187.496094 0 L 340.234375 152.734375 L 187.496094 305.472656 L 34.761719 152.734375 Z M 187.496094 0 " clip-rule="nonzero"/></clipPath></defs><path fill="#a9cbd9" d="M 75 0 L 300 0 C 341.421875 0 375 33.578125 375 75 L 375 300 C 375 341.421875 341.421875 375 300 375 L 75 375 C 33.578125 375 0 341.421875 0 300 L 0 75 C 0 33.578125 33.578125 0 75 0 " fill-opacity="1" fill-rule="nonzero"/><g clip-path="url(#eee272d7c8)"><g clip-path="url(#f8eede48eb)"><g clip-path="url(#82bcc8e89d)"><g clip-path="url(#546d67c33d)"><path stroke-linecap="butt" transform="matrix(0.531137, 0.531137, -0.531137, 0.531137, 187.497487, 69.987857)" fill="none" stroke-linejoin="miter" d="M -0.00091181 0.00171056 L 287.564007 -0.00196669 L 287.560329 287.562952 L -0.00091181 287.562952 L -0.00091181 0.00171056 " stroke="#002940" stroke-width="30" stroke-opacity="1" stroke-miterlimit="4"/></g></g></g></g><g clip-path="url(#a2351dbdad)"><g clip-path="url(#5afa173bfd)"><g clip-path="url(#3b70286c5f)"><g clip-path="url(#b3074c2df5)"><path stroke-linecap="butt" transform="matrix(0.52977, 0.52977, -0.52977, 0.52977, 187.499068, 155.209063)" fill="none" stroke-linejoin="miter" d="M 0.00264898 0.000890084 L 207.219557 0.000890084 L 207.219557 207.217798 L 0.00264898 207.217798 L 0.00264898 0.000890084 " stroke="#002940" stroke-width="30" stroke-opacity="1" stroke-miterlimit="4"/></g></g></g></g><g clip-path="url(#949650eb1a)"><g clip-path="url(#820b03f131)"><g clip-path="url(#0032911c01)"><g clip-path="url(#c4bdd6cb0f)"><path stroke-linecap="butt" transform="matrix(0.531137, 0.531137, -0.531137, 0.531137, 187.497487, 0.00103926)" fill="none" stroke-linejoin="miter" d="M -0.00228952 0.000332847 L 287.562629 -0.00334441 L 287.562629 287.565251 L -0.00228952 287.561574 L -0.00228952 0.000332847 " stroke="#002940" stroke-width="30" stroke-opacity="1" stroke-miterlimit="4"/></g></g></g></g></svg>